<svg width="53" height="51" viewBox="0 0 53 51" fill="none" xmlns="http://www.w3.org/2000/svg">
<path fill-rule="evenodd" clip-rule="evenodd" d="M0.711195 9.85166L0.0177702 13.6574C-0.00355742 13.7765 -0.00628903 13.9001 0.0128512 14.0198L5.32453 48.8822C5.54108 50.1193 6.5845 51 7.80892 51C8.14634 51 40.5047 50.9978 42.1967 50.9962C42.2049 50.9962 42.2121 50.9959 42.2193 50.9957C42.2218 50.9956 42.2243 50.9956 42.2268 50.9956L42.7332 50.9973C45.9099 50.9973 48.7115 49.7497 50.6222 47.4848C52.568 45.1781 53.3587 42.1131 52.8491 38.8526L47.1847 11.0047C45.9745 4.93846 40.0705 0 34.0228 0H7.51198C7.19042 0 6.88472 0.142213 6.67746 0.3893C6.46911 0.636388 6.38052 0.962544 6.43411 1.28156L12.6454 38.1514C12.734 38.6802 13.1901 39.0662 13.7232 39.0662H40.2548C42.0343 39.0662 43.4966 40.5411 43.7296 42.5721C43.8094 43.415 43.4775 44.3984 42.8814 45.0578C42.3613 45.6316 41.6564 45.9479 40.8947 45.9479L9.1028 45.9468L2.86474 9.861C2.77396 9.33662 2.3228 8.95281 1.79234 8.95061H1.78687C1.25915 8.95061 0.806349 9.32948 0.711195 9.85166ZM23.916 9.78C24.42 10.284 25.044 10.536 25.788 10.536C26.508 10.536 27.12 10.284 27.624 9.78C28.128 9.276 28.38 8.652 28.38 7.908C28.38 7.164 28.128 6.54 27.624 6.036C27.12 5.532 26.508 5.28 25.788 5.28C25.044 5.28 24.42 5.532 23.916 6.036C23.412 6.54 23.16 7.164 23.16 7.908C23.16 8.652 23.412 9.276 23.916 9.78ZM27.804 33V13.164H23.7V33H27.804Z" fill="#4767ED"/>
</svg>
