<svg width="28" height="28" viewBox="0 0 28 28" fill="none" xmlns="http://www.w3.org/2000/svg">
<path d="M2.54492 10.6005C2.54433 9.70747 2.71989 8.82309 3.06157 7.998C3.40325 7.17292 3.90433 6.42333 4.53612 5.79218C5.16791 5.16103 5.91799 4.6607 6.74342 4.31984C7.56884 3.97899 8.4534 3.8043 9.34643 3.8058H18.4151C22.1707 3.8058 25.2166 6.86081 25.2166 10.6005V24.2103H9.34643C5.59087 24.2103 2.54492 21.1553 2.54492 17.4156V10.6005ZM22.9494 21.9431V10.6005C22.9464 9.39947 22.4675 8.24858 21.6176 7.39996C20.7677 6.55134 19.6161 6.07416 18.4151 6.07296H9.34643C8.75113 6.07147 8.16138 6.18751 7.61102 6.41443C7.06066 6.64135 6.56051 6.97468 6.13925 7.39531C5.71799 7.81594 5.38391 8.31559 5.15616 8.86561C4.92842 9.41563 4.81149 10.0052 4.81209 10.6005V17.4156C4.81509 18.6166 5.29399 19.7675 6.14389 20.6162C6.99379 21.4648 8.14539 21.942 9.34643 21.9431H22.9494ZM16.1479 12.8745H18.4151V15.1416H16.1479V12.8745ZM9.34643 12.8745H11.6136V15.1416H9.34643V12.8745Z" fill="black"/>
</svg>
