<svg width="24" height="24" viewBox="0 0 24 24" fill="none" xmlns="http://www.w3.org/2000/svg">
<path d="M20.75 16V3C20.75 2.375 20.375 2 19.75 2H7C4.875 2 3.25 3.625 3.25 5.75V18.25C3.25 20.375 4.875 22 7 22H19.75C20.25 22 20.75 21.625 20.75 21V20.375C20.75 20.125 20.625 19.875 20.375 19.625C20.25 19 20.25 17.25 20.375 16.75C20.625 16.625 20.75 16.375 20.75 16ZM8.875 8.5625C8.875 8.47962 8.90792 8.40013 8.96653 8.34153C9.02513 8.28292 9.10462 8.25 9.1875 8.25H11.375V6.0625C11.375 5.97962 11.4079 5.90013 11.4665 5.84153C11.5251 5.78292 11.6046 5.75 11.6875 5.75H13.5625C13.6454 5.75 13.7249 5.78292 13.7835 5.84153C13.8421 5.90013 13.875 5.97962 13.875 6.0625V8.25H16.0625C16.1454 8.25 16.2249 8.28292 16.2835 8.34153C16.3421 8.40013 16.375 8.47962 16.375 8.5625V10.4375C16.375 10.5204 16.3421 10.5999 16.2835 10.6585C16.2249 10.7171 16.1454 10.75 16.0625 10.75H13.875V12.9375C13.875 13.0204 13.8421 13.0999 13.7835 13.1585C13.7249 13.2171 13.6454 13.25 13.5625 13.25H11.6875C11.6046 13.25 11.5251 13.2171 11.4665 13.1585C11.4079 13.0999 11.375 13.0204 11.375 12.9375V10.75H9.1875C9.10462 10.75 9.02513 10.7171 8.96653 10.6585C8.90792 10.5999 8.875 10.5204 8.875 10.4375V8.5625ZM18.125 19.5H7C6.25 19.5 5.75 19 5.75 18.25C5.75 17.5 6.375 17 7 17H18.125V19.5Z" fill="#4767ED"/>
</svg>
