<svg width="429" height="188" viewBox="0 0 429 188" fill="none" xmlns="http://www.w3.org/2000/svg">
<path d="M0.0618744 47.5478L2.47601 34.2984C2.8073 32.4804 4.3837 31.1614 6.22096 31.1614C6.22858 31.1614 6.23239 31.1614 6.24001 31.1614C8.08678 31.169 9.65749 32.5053 9.97353 34.3309L31.6912 159.963L142.374 159.967C145.026 159.967 147.48 158.866 149.291 156.868C151.366 154.572 152.522 151.148 152.244 148.214C151.433 141.143 146.342 136.008 140.146 136.008H47.7772C45.9209 136.008 44.3331 134.664 44.0246 132.824L22.4002 4.46173C22.2137 3.35108 22.5221 2.21557 23.2475 1.35534C23.969 0.495111 25.0333 0 26.1528 0H118.45C139.505 0 160.059 17.1932 164.273 38.3128L183.993 135.265C185.767 146.616 183.014 157.287 176.24 165.317C169.588 173.203 159.835 177.546 148.775 177.546L147.012 177.54C146.978 177.54 146.945 177.542 146.907 177.542C141.017 177.548 28.3613 177.556 27.1866 177.556C22.9238 177.556 19.2912 174.489 18.5372 170.182L0.0447388 48.8095C-0.0218964 48.3928 -0.0123901 47.9627 0.0618744 47.5478Z" fill="#4767ED"/>
<path d="M249.984 126.469H279.438V138H235.696V50.8933H249.984V126.469ZM298.656 59.792C296.066 59.792 293.893 58.9147 292.138 57.16C290.384 55.4053 289.506 53.2329 289.506 50.6427C289.506 48.0524 290.384 45.88 292.138 44.1253C293.893 42.3707 296.066 41.4933 298.656 41.4933C301.162 41.4933 303.293 42.3707 305.048 44.1253C306.802 45.88 307.68 48.0524 307.68 50.6427C307.68 53.2329 306.802 55.4053 305.048 57.16C303.293 58.9147 301.162 59.792 298.656 59.792ZM305.674 68.9413V138H291.386V68.9413H305.674Z" fill="black"/>
<path d="M345.307 86.9784L355.083 58.841H362.666L349.506 93.3704H340.983L327.886 58.841H335.531L345.307 86.9784ZM375.21 63.8544C376.254 62.0997 377.633 60.7419 379.346 59.781C381.101 58.7784 383.169 58.277 385.55 58.277V65.6717H383.733C380.934 65.6717 378.803 66.3819 377.341 67.8024C375.92 69.2228 375.21 71.6877 375.21 75.197V93.3704H368.066V58.841H375.21V63.8544ZM407.094 93.9344C403.835 93.9344 400.89 93.2033 398.258 91.741C395.626 90.237 393.558 88.1481 392.054 85.4744C390.55 82.7588 389.798 79.6255 389.798 76.0744C389.798 72.565 390.571 69.4526 392.117 66.737C393.663 64.0215 395.772 61.9326 398.446 60.4704C401.12 59.0081 404.107 58.277 407.407 58.277C410.708 58.277 413.695 59.0081 416.369 60.4704C419.043 61.9326 421.152 64.0215 422.698 66.737C424.244 69.4526 425.017 72.565 425.017 76.0744C425.017 79.5837 424.223 82.6961 422.636 85.4117C421.048 88.1272 418.876 90.237 416.118 91.741C413.403 93.2033 410.395 93.9344 407.094 93.9344ZM407.094 87.7304C408.932 87.7304 410.645 87.2917 412.233 86.4144C413.862 85.537 415.178 84.221 416.181 82.4664C417.184 80.7117 417.685 78.581 417.685 76.0744C417.685 73.5677 417.204 71.4579 416.243 69.745C415.283 67.9904 414.008 66.6744 412.421 65.797C410.833 64.9197 409.12 64.481 407.282 64.481C405.444 64.481 403.731 64.9197 402.143 65.797C400.598 66.6744 399.365 67.9904 398.446 69.745C397.527 71.4579 397.067 73.5677 397.067 76.0744C397.067 79.7926 398.007 82.6752 399.887 84.7224C401.809 86.7277 404.211 87.7304 407.094 87.7304Z" fill="black"/>
<path d="M345.307 132.238L355.083 104.1H362.666L349.506 138.63H340.983L327.886 104.1H335.531L345.307 132.238ZM375.21 109.114C376.254 107.359 377.633 106.001 379.346 105.04C381.101 104.038 383.169 103.536 385.55 103.536V110.931H383.733C380.934 110.931 378.803 111.641 377.341 113.062C375.92 114.482 375.21 116.947 375.21 120.456V138.63H368.066V104.1H375.21V109.114ZM423.764 120.519C423.764 121.814 423.68 122.984 423.513 124.028H397.13C397.339 126.786 398.363 129 400.201 130.671C402.039 132.342 404.295 133.178 406.969 133.178C410.812 133.178 413.528 131.569 415.116 128.352H422.823C421.779 131.527 419.878 134.139 417.121 136.186C414.405 138.191 411.021 139.194 406.969 139.194C403.668 139.194 400.702 138.463 398.07 137C395.48 135.496 393.433 133.407 391.929 130.734C390.467 128.018 389.735 124.885 389.735 121.334C389.735 117.783 390.446 114.67 391.866 111.996C393.328 109.281 395.355 107.192 397.945 105.73C400.577 104.267 403.585 103.536 406.969 103.536C410.227 103.536 413.131 104.247 415.68 105.667C418.228 107.087 420.212 109.093 421.633 111.683C423.053 114.231 423.764 117.177 423.764 120.519ZM416.306 118.263C416.264 115.631 415.324 113.521 413.486 111.934C411.648 110.346 409.371 109.552 406.655 109.552C404.191 109.552 402.081 110.346 400.326 111.934C398.571 113.479 397.527 115.589 397.193 118.263H416.306Z" fill="black"/>
</svg>
